<?xml version="1.0" encoding="utf-8"?>
<!-- Generator: Adobe Illustrator 24.0.2, SVG Export Plug-In . SVG Version: 6.00 Build 0)  -->
<svg version="1.1" id="Layer_1" xmlns="http://www.w3.org/2000/svg" xmlns:xlink="http://www.w3.org/1999/xlink" x="0px" y="0px"
	 viewBox="0 0 24 24" style="enable-background:new 0 0 24 24;" xml:space="preserve">
<style type="text/css">
	.st0{fill:#FFFFFF;}
</style>
<path class="st0" d="M18.7,19.5c-0.8,1.2-1.7,2.5-3,2.5c-1.3,0-1.8-0.8-3.3-0.8c-1.5,0-2,0.8-3.3,0.8c-1.3,0-2.3-1.3-3.1-2.5
	c-1.7-2.5-3-7-1.3-10.1c0.9-1.5,2.4-2.5,4.1-2.5c1.3,0,2.5,0.9,3.3,0.9c0.8,0,2.3-1.1,3.8-0.9c0.6,0,2.5,0.3,3.6,2
	c-0.1,0.1-2.2,1.3-2.1,3.8c0,3,2.6,4,2.7,4C20.1,16.7,19.7,18.1,18.7,19.5 M13,3.5C13.7,2.7,14.9,2,15.9,2c0.1,1.2-0.3,2.3-1,3.2
	c-0.7,0.8-1.8,1.5-2.9,1.4C11.8,5.5,12.4,4.3,13,3.5z"/>
</svg>
