<?xml version="1.0" encoding="utf-8"?>
<!-- Generator: Adobe Illustrator 24.0.2, SVG Export Plug-In . SVG Version: 6.00 Build 0)  -->
<svg version="1.1" id="Layer_1" xmlns="http://www.w3.org/2000/svg" xmlns:xlink="http://www.w3.org/1999/xlink" x="0px" y="0px"
	 viewBox="0 0 529.7 175.2" style="enable-background:new 0 0 529.7 175.2;" xml:space="preserve">
<style type="text/css">
	.st0{fill:#CACBCD;}
	.st1{fill:#00DBA2;}
</style>
<path class="st0" d="M116.2,77.7c-2.1-1.8-4.4-3.5-6.7-5l22.4-42.5l-9.9-4.8c-14.5-7-29.8-11.1-44.3-11.9
	c-11.2-0.6-21.4,0.8-30.4,4.1c-1.6,0.6-3.1,1.2-4.3,1.8l-0.6,0.3l-0.4,0.2c-11.7,5.7-20.2,15.1-24,26.6C12,65,16.1,81.4,29.8,93.9
	c1.3,1.2,2.7,2.3,4.1,3.4l-23.6,46.5l9.9,4.7c8.3,3.9,23.9,10.3,41.5,12.7l0,0h0c2.8,0.4,5.6,0.7,8.4,0.8c1.7,0.1,3.4,0.1,5,0.1
	c9,0,17.2-1.4,24.5-4.1c1.1-0.4,2-0.8,2.7-1.2l1.7-0.8l0.3-0.2c13.6-6.7,22.9-18.4,26.3-33.2C134.6,105,129.7,89.4,116.2,77.7
	L116.2,77.7z"/>
<g>
	<path class="st0" d="M150.8,110.1l3.1-6.8c3.8,3.1,9.8,5.2,15.6,5.2c7.4,0,10.5-2.6,10.5-6.2c0-10.2-28.2-3.5-28.2-21.1
		c0-7.7,6.1-14.2,19.1-14.2c5.7,0,11.6,1.5,15.8,4.2l-2.8,6.8c-4.3-2.5-8.9-3.7-13.1-3.7c-7.3,0-10.3,2.8-10.3,6.4
		c0,10.1,28.1,3.5,28.1,20.9c0,7.6-6.2,14.1-19.2,14.1C162.1,115.8,154.8,113.5,150.8,110.1L150.8,110.1z"/>
	<path class="st0" d="M223.6,104.5l4.5,5.2c-3.2,3.9-8.3,5.9-14.5,5.9c-12.1,0-20-7.8-20-18.6s7.9-18.5,18.6-18.5
		c10.1,0,18.2,6.8,18.3,18.1l-27.7,5.4c1.8,4.1,5.7,6.4,11,6.4C217.8,108.4,221,107.1,223.6,104.5L223.6,104.5z M201.8,96.5
		L201.8,96.5l20.4-3.9c-1.1-4.4-4.9-7.4-10-7.4C206.1,85.3,201.8,89.6,201.8,96.5z"/>
	<path class="st0" d="M259,113.1c-2,1.6-5.1,2.4-8.1,2.4c-7.9,0-12.4-4.2-12.4-12.2V71h8.5v8.3h9.7V86h-9.7v17.2
		c0,3.5,1.8,5.4,5,5.4c1.8,0,3.4-0.5,4.7-1.5L259,113.1L259,113.1z"/>
	<path class="st0" d="M286.2,113.1c-2,1.6-5.1,2.4-8.1,2.4c-7.9,0-12.5-4.2-12.5-12.2V71h8.5v8.3h9.7V86h-9.7v17.2
		c0,3.5,1.8,5.4,5,5.4c1.8,0,3.5-0.5,4.7-1.5L286.2,113.1L286.2,113.1z"/>
	<path class="st0" d="M293.2,103.8V64.8h8.5v38.3c0,3.5,1.7,5.4,5.1,5.4c1.1,0,2.4-0.3,3-0.7l0.4,6.8c-1.6,0.6-3.4,0.9-5.1,0.9
		C297.6,115.6,293.2,111.3,293.2,103.8z"/>
	<path class="st0" d="M312.3,97c0-10.8,8.1-18.5,19.2-18.5s19.3,7.7,19.3,18.5s-8,18.6-19.3,18.6S312.3,107.8,312.3,97z M342.3,97
		c0-6.9-4.6-11.3-10.8-11.3s-10.7,4.4-10.7,11.3s4.6,11.3,10.7,11.3S342.3,103.9,342.3,97z"/>
</g>
<path class="st1" d="M493.2,141.2H368.9V82.5c0-14.4,11.7-26.2,26.2-26.2h98.1c14.4,0,26.2,11.7,26.2,26.2V115
	C519.4,129.4,507.6,141.2,493.2,141.2L493.2,141.2z M375.9,134.2h117.3c10.6,0,19.2-8.6,19.2-19.2V82.5c0-10.6-8.6-19.2-19.2-19.2
	h-98.1c-10.6,0-19.2,8.6-19.2,19.2L375.9,134.2L375.9,134.2z"/>
<g>
	<path class="st0" d="M421.9,92.1c0,7.9-5.9,12.8-15.3,12.8h-7.1v9.7h-8.2V79.3h15.3C416,79.3,421.9,84.2,421.9,92.1L421.9,92.1z
		 M413.7,92.1c0-3.9-2.5-6.2-7.5-6.2h-6.7v12.3h6.7C411.1,98.2,413.7,95.9,413.7,92.1z"/>
	<path class="st0" d="M451.3,114.6l-6.8-9.8h-7.5v9.8h-8.2V79.3h15.3c9.4,0,15.3,4.9,15.3,12.8c0,5.3-2.7,9.2-7.3,11.2l7.9,11.4
		L451.3,114.6L451.3,114.6z M443.6,85.9h-6.7v12.3h6.7c5,0,7.5-2.3,7.5-6.2S448.6,85.9,443.6,85.9z"/>
	<path class="st0" d="M464.6,96.9c0-10.5,8.2-18.3,19.3-18.3s19.3,7.7,19.3,18.3s-8.2,18.3-19.3,18.3S464.6,107.4,464.6,96.9z
		 M495,96.9c0-6.7-4.8-11.3-11-11.3s-11,4.6-11,11.3s4.7,11.3,11,11.3S495,103.7,495,96.9z"/>
</g>
</svg>
