<?xml version="1.0" encoding="UTF-8"?>
<svg id="Layer_1" data-name="Layer 1" xmlns="http://www.w3.org/2000/svg" viewBox="0 0 529.69 175.22">
  <defs>
    <style>
      .cls-1 {
        fill: #cacbcd;
      }

      .cls-1, .cls-2 {
        stroke-width: 0px;
      }

      .cls-2 {
        fill: #00dba2;
      }
    </style>
  </defs>
  <g>
    <path class="cls-1" d="m116.19,77.74c-2.13-1.84-4.39-3.48-6.7-5.01l22.35-42.51-9.89-4.78c-14.47-7-29.79-11.12-44.31-11.91-11.21-.61-21.43.76-30.37,4.08-1.61.6-3.06,1.25-4.26,1.81l-.57.27-.36.22c-11.68,5.74-20.2,15.12-24,26.59-6.08,18.54-2.02,34.94,11.75,47.42,1.33,1.2,2.7,2.33,4.12,3.4l-23.64,46.52,9.86,4.68c8.33,3.95,23.89,10.34,41.53,12.74h0s.03,0,.03,0c2.76.38,5.56.66,8.4.82,1.69.09,3.36.14,5,.14,9.01,0,17.23-1.38,24.47-4.13,1.06-.4,1.97-.82,2.7-1.17l1.66-.76.33-.25c13.56-6.68,22.89-18.38,26.28-33.19,4.05-17.76-.92-33.32-14.38-44.99Z"/>
    <g>
      <path class="cls-1" d="m150.83,110.08l3.05-6.84c3.79,3.05,9.82,5.21,15.64,5.21,7.38,0,10.49-2.64,10.49-6.16,0-10.22-28.16-3.52-28.16-21.12,0-7.65,6.09-14.15,19.09-14.15,5.69,0,11.64,1.49,15.77,4.2l-2.77,6.84c-4.27-2.51-8.93-3.72-13.07-3.72-7.31,0-10.29,2.84-10.29,6.43,0,10.09,28.09,3.52,28.09,20.92,0,7.58-6.16,14.08-19.16,14.08-7.38,0-14.76-2.3-18.68-5.69Z"/>
      <path class="cls-1" d="m223.61,104.46l4.47,5.21c-3.18,3.86-8.26,5.89-14.49,5.89-12.12,0-19.97-7.78-19.97-18.55s7.86-18.48,18.62-18.48c10.09,0,18.21,6.77,18.27,18.07l-27.69,5.42c1.76,4.13,5.69,6.36,10.97,6.36,4.06,0,7.18-1.29,9.82-3.93Zm-21.8-7.92v.07l20.45-3.93c-1.15-4.4-4.94-7.38-10.02-7.38-6.16,0-10.43,4.33-10.43,11.24Z"/>
      <path class="cls-1" d="m258.96,113.13c-2.03,1.62-5.08,2.44-8.13,2.44-7.92,0-12.45-4.2-12.45-12.19v-32.42h8.46v8.26h9.68v6.77h-9.68v17.2c0,3.52,1.82,5.42,5.01,5.42,1.76,0,3.45-.47,4.74-1.49l2.37,6.02Z"/>
      <path class="cls-1" d="m286.24,113.13c-2.03,1.62-5.08,2.44-8.13,2.44-7.92,0-12.45-4.2-12.45-12.19v-32.42h8.46v8.26h9.68v6.77h-9.68v17.2c0,3.52,1.82,5.42,5.01,5.42,1.76,0,3.46-.47,4.74-1.49l2.37,6.02Z"/>
      <path class="cls-1" d="m293.22,103.78v-38.93h8.46v38.32c0,3.52,1.69,5.42,5.08,5.42,1.15,0,2.37-.34,3.04-.68l.41,6.77c-1.63.61-3.38.88-5.08.88-7.51,0-11.91-4.27-11.91-11.78Z"/>
      <path class="cls-1" d="m312.31,97.02c0-10.83,8.13-18.48,19.23-18.48s19.29,7.65,19.29,18.48-8.05,18.55-19.29,18.55-19.23-7.72-19.23-18.55Zm29.99,0c0-6.91-4.6-11.31-10.76-11.31s-10.7,4.4-10.7,11.31,4.61,11.3,10.7,11.3,10.76-4.4,10.76-11.3Z"/>
    </g>
  </g>
  <path class="cls-2" d="m493.21,141.16h-124.26v-58.62c0-14.43,11.74-26.18,26.18-26.18h98.08c14.43,0,26.18,11.74,26.18,26.18v32.44c0,14.43-11.74,26.18-26.18,26.18Zm-117.26-7h117.26c10.57,0,19.18-8.6,19.18-19.18v-32.44c0-10.57-8.6-19.18-19.18-19.18h-98.08c-10.57,0-19.18,8.6-19.18,19.18v51.62Z"/>
  <g>
    <path class="cls-1" d="m421.94,92.09c0,7.88-5.91,12.77-15.34,12.77h-7.12v9.74h-8.18v-35.33h15.29c9.44,0,15.34,4.9,15.34,12.82Zm-8.28,0c0-3.89-2.52-6.16-7.52-6.16h-6.66v12.27h6.66c5,0,7.52-2.27,7.52-6.11Z"/>
    <path class="cls-1" d="m451.27,114.61l-6.81-9.84h-7.52v9.84h-8.18v-35.33h15.29c9.44,0,15.34,4.9,15.34,12.82,0,5.3-2.68,9.19-7.27,11.16l7.92,11.36h-8.78Zm-7.67-28.67h-6.66v12.32h6.66c5,0,7.52-2.32,7.52-6.16s-2.52-6.16-7.52-6.16Z"/>
    <path class="cls-1" d="m464.65,96.94c0-10.5,8.18-18.27,19.33-18.27s19.33,7.72,19.33,18.27-8.23,18.27-19.33,18.27-19.33-7.77-19.33-18.27Zm30.39,0c0-6.71-4.75-11.31-11.05-11.31s-11.05,4.59-11.05,11.31,4.74,11.31,11.05,11.31,11.05-4.59,11.05-11.31Z"/>
  </g>
</svg>