<svg xmlns="http://www.w3.org/2000/svg" viewBox="0 0 300 100"><defs><style>.cls-1{fill:none;}.cls-2{fill:#e7272f;}.cls-3{fill:#e7262e;}</style></defs><g id="Layer_2" data-name="Layer 2"><g id="Layer_1-2" data-name="Layer 1"><rect class="cls-1" width="300" height="100"/><path class="cls-2" d="M117.53,40.54c.47-.95.64-2,1.18-2.94a9.92,9.92,0,0,1,8.61-5,49.43,49.43,0,0,1,6.44,0c.68.05.92-.12.86-.88-.21-3-1.73-4.52-4.8-4.62a14.86,14.86,0,0,0-6.59,1.73c-1.29.57-1.29.58-1.82-.73-.36-.9-.67-1.82-1.11-2.68-.36-.71-.11-1,.5-1.3a20.94,20.94,0,0,1,11.91-2.51c4.39.49,8.68,4.29,8.49,9.21-.17,4.33.33,8.67.12,13a5.88,5.88,0,0,0-.09,1.17c.35,2.07-.88,3.27-2.33,4.35a16.74,16.74,0,0,1-12.72,3.14c-4.18-.62-6.85-3.35-8.27-7.3-.12-.33,0-.74-.38-1Zm16.82,1c0-1,0-2,0-3,0-.4-.09-.58-.53-.58-1.57,0-3.16-.1-4.72,0-3.07.28-4.69,2.17-4.32,4.84.53,3.8,4.77,5.65,8.29,3.64a2.17,2.17,0,0,0,1.29-2.15A14.91,14.91,0,0,0,134.35,41.57Z"/><path class="cls-2" d="M229.27,52.6a23,23,0,0,1-5.55-.46,7.38,7.38,0,0,1-5.82-7.42c0-9.75,0-19.5,0-29.25,0-.45,0-.82.6-.92,1.76-.27,3.53-.58,5.28-.9.62-.11.89,0,.9.72q.08,8.44,0,16.88c0,4.55,0,9.11,0,13.66,0,1.57.91,2.4,2.87,2.74.56.09,1.13.14,1.7.21Z"/><path class="cls-3" d="M97,10.64h2.27c4.33.31,8,1.84,10.4,5.65a11.86,11.86,0,0,1,1.62,7.09c-.27,5.12-2.58,9.38-5.66,13.29a43.9,43.9,0,0,1-10.3,9,27.78,27.78,0,0,1-7.48,3.9,9.29,9.29,0,0,1-3.69.49,4.68,4.68,0,0,1-3.94-5.54,14.41,14.41,0,0,1,3.41-6.72,6.3,6.3,0,0,1,5-2.22,3.8,3.8,0,0,1,1.78.52,1.94,1.94,0,0,1,.67,3,21.25,21.25,0,0,1-2.9,3.24,19.54,19.54,0,0,0-3.14,3.59,5.11,5.11,0,0,0-.49,1c-.43,1.24.18,2,1.46,1.74a8.34,8.34,0,0,0,1.68-.51,29,29,0,0,0,6.46-3.87,38.66,38.66,0,0,0,8.14-7.81,16.67,16.67,0,0,0,3.33-7.81,7,7,0,0,0-.61-3.89,4,4,0,0,0-4.65-2.33,15.79,15.79,0,0,0-5.68,2.28,111.26,111.26,0,0,0-12.55,8.42,13.11,13.11,0,0,1-5.25,2.51c-3,.65-7-2.39-6-6.38a15.79,15.79,0,0,1,3.59-6.43,35.49,35.49,0,0,1,11.07-8.49A32.5,32.5,0,0,1,94.36,11,13,13,0,0,1,97,10.64Z"/><path class="cls-2" d="M206,37.9c-2.48,0-5,0-7.43,0-.89,0-1.11.26-1,1.1a19.65,19.65,0,0,0,.6,2.94c1.4,4.43,4.59,6.19,9.08,5a28.35,28.35,0,0,0,4.42-1.65c.52-.23.74-.15,1,.37.45,1,1,2.08,1.45,3.11.16.34.33.63-.13.89-4.34,2.45-8.9,3.82-13.9,2.57-4.69-1.17-7.25-4.61-8.62-8.94A19.31,19.31,0,0,1,194,25.93c2.3-3.38,5.79-4.45,9.69-4.16,6.31.45,9.18,4,10.3,10.31a38.64,38.64,0,0,1,.47,4.92c0,.72-.19.92-.9.91C211,37.88,208.49,37.9,206,37.9Zm-3.34-5.19c1.35,0,2.71,0,4.07,0,.47,0,.63-.1.49-.62a17.56,17.56,0,0,0-.74-2.57A3.75,3.75,0,0,0,202.93,27a4,4,0,0,0-3.89,2.2,13.39,13.39,0,0,0-.89,2.51c-.25.76-.11,1,.73,1C200.13,32.67,201.38,32.71,202.64,32.71Z"/><path class="cls-2" d="M177,30.21c0-4.85,0-9.69,0-14.53,0-.84.27-1.1,1.06-1.19,1.67-.19,3.33-.47,5-.77.71-.13.94,0,.94.78,0,2.19.07,4.38,0,6.56,0,.76.23,1,1,1,1.1,0,2.56-.5,3.19.23s.15,2,.16,3.11c0,2,0,2-2,2-2.4,0-2.4,0-2.4,2.41,0,4.73,0,9.46,0,14.19,0,2.69.76,3.42,3.45,3.65,1,.09,1.26.47,1.18,1.4s0,1.86,0,2.79c0,.45-.14.64-.61.65a16.58,16.58,0,0,1-6.14-.77A7.34,7.34,0,0,1,177,44.52C177,39.75,177,35,177,30.21Z"/><path class="cls-2" d="M157.15,40c0-3.59,0-7.17,0-10.76A4,4,0,0,1,158.53,26a18.42,18.42,0,0,1,15.67-4.43c.68.1.77.33.51.89-.69,1.46-1.39,2.91-2,4.39a1,1,0,0,1-1.24.67,13.25,13.25,0,0,0-6.52,1,1.32,1.32,0,0,0-.94,1.43c0,7,0,14.06,0,21.09,0,1-.28,1.19-1.21,1.13a39.73,39.73,0,0,0-4.63,0c-.89.06-1.06-.25-1-1.06,0-3.7,0-7.39,0-11.09Z"/><path class="cls-2" d="M152.6,37.2c0,4.66,0,9.32,0,14,0,.65-.09,1-.86,1-1.71-.05-3.44,0-5.15,0-.8,0-.75-.42-.75-.95V39.82c0-5.17,0-10.33,0-15.49,0-.8.1-1.22,1-1.3a46.24,46.24,0,0,0,4.67-.73c.84-.16,1.05.11,1,.92,0,4.66,0,9.32,0,14Z"/><path class="cls-2" d="M186.7,89.37c-.83-.5-1.64-1-1.71-2.12,0-.55.1-.79.67-.78a10.66,10.66,0,0,0,1.38-.09,2.13,2.13,0,0,0,1.67-3.12,47,47,0,0,1-4-10.3c-.25-.95-.13-1.38,1-1.31,1.73.11,2.23.42,2.62,2.12a27.94,27.94,0,0,0,2.43,6.81,10.54,10.54,0,0,0,1.2-3,18.3,18.3,0,0,0,1.16-4.69c.09-1.3.79-1.32,1.74-1.26s1.57.55,1.54,1.59a3.93,3.93,0,0,1-.13,1,60.44,60.44,0,0,1-4.79,12.08,5.56,5.56,0,0,1-3.44,3Z"/><path class="cls-2" d="M139.53,80.4c0,1.31,0,2.62,0,3.93,0,.63-.2.79-.8.74-2-.15-2.61-.78-2.62-2.84,0-1.77,0-3.55-.05-5.31a2.24,2.24,0,0,0-1.63-2.38,2.08,2.08,0,0,0-2.8,2.15c-.07,2.43-.07,4.86,0,7.28,0,.94-.21,1.23-1.17,1.06-1.58-.27-2.23-.91-2.25-2.52s0-3.47,0-5.2-.72-2.64-2-2.82a2,2,0,0,0-2.47,1.83,30.67,30.67,0,0,0-.17,5.07c0,.73,0,1.46,0,2.2,0,1.63-.45,1.92-2,1.22A2,2,0,0,1,120.32,83a29.7,29.7,0,0,1,.12-7.36,5.55,5.55,0,0,1,9.17-2.9c.48.43.68.45,1.15,0a4.91,4.91,0,0,1,5.67-.9,4.74,4.74,0,0,1,3.06,4.38c.09,1.38,0,2.77,0,4.16Z"/><path class="cls-2" d="M148.65,71.39c3.63,0,6.34,3,6.3,6.83,0,4.24-2.8,7.23-6.67,7.14-4.43-.1-6.38-3.78-6.25-7.08C142.2,74.15,144.72,71.38,148.65,71.39Zm2.72,7a5.28,5.28,0,0,0-.42-2.27,2.62,2.62,0,0,0-2.67-1.62,2.38,2.38,0,0,0-2.38,1.65,5.8,5.8,0,0,0,.18,4.69,2.56,2.56,0,0,0,2.67,1.42A2.47,2.47,0,0,0,151,80.61,5.08,5.08,0,0,0,151.37,78.38Z"/><path class="cls-2" d="M182.89,81.18c.24,2.56-.65,3.69-3,4-4,.56-7.1-1.2-8-4.67-1.07-4,.93-9.27,6.52-9.13a5.08,5.08,0,0,1,5.07,5.08,2.66,2.66,0,0,1-2.21,2.94,16.35,16.35,0,0,1-5.26.42c-.89,0-.9.3-.54.9a3.59,3.59,0,0,0,3.11,1.7A6.68,6.68,0,0,0,182.89,81.18Zm-5.83-3.81v0c.65-.06,1.3-.09,1.94-.19s1.11-.19,1.22-.85a1.62,1.62,0,0,0-.73-1.7,2.89,2.89,0,0,0-3.88.79c-.32.52-.71,1.15-.41,1.71s.92.12,1.4.18A3.49,3.49,0,0,0,177.06,77.37Z"/><path class="cls-2" d="M169.13,80.47c0,1.27,0,2.55,0,3.81,0,.7-.23.85-.87.79-1.83-.17-2.54-.91-2.55-2.73s0-3.62-.05-5.42a2.25,2.25,0,0,0-1.91-2.4c-1.8-.32-2.94.69-3,2.71,0,2.31,0,4.62,0,6.93,0,.81-.28,1-1,.91-1.73-.19-2.43-.94-2.43-2.72s0-3.39,0-5.08a5.59,5.59,0,0,1,5.88-5.88,5.48,5.48,0,0,1,5.86,5.73c0,1.12,0,2.24,0,3.35Z"/><path class="cls-2" d="M148.93,19.44a4.27,4.27,0,0,1-4.37-4.22,4.47,4.47,0,1,1,8.93-.13A4.25,4.25,0,0,1,148.93,19.44Z"/></g></g></svg>